<svg id="_レイヤー_1" data-name="レイヤー 1" xmlns="http://www.w3.org/2000/svg" viewBox="0 0 595.28 841.89">
  <defs>
    <style>
      .cls-1 {
        fill: #205134;
      }
    </style>
  </defs>
  <path class="cls-1" d="M354.87,383.29c-21.47,0-40.83,12.93-49.05,32.77-8.22,19.84-3.68,42.68,11.51,57.86,15.18,15.18,38.02,19.73,57.86,11.51,19.84-8.22,32.77-27.58,32.77-49.05-.04-29.3-23.78-53.05-53.09-53.09ZM354.87,460.29h0c-9.67,0-18.39-5.83-22.09-14.76-3.7-8.94-1.66-19.22,5.18-26.06,6.84-6.84,17.13-8.89,26.06-5.18,8.93,3.7,14.76,12.42,14.76,22.09-.01,13.2-10.71,23.9-23.91,23.92Z"/>
  <path class="cls-1" d="M232.92,383.29c-11.93,0-23.41,4.57-32.06,12.79-13.25-12.56-32.61-16.24-49.53-9.4l-.04-5.69h-29.14v108.56h29.35s0-58.57,0-58.57c0-3.37.43-7.37,2.06-10.06,2.83-4.68,8.13-7.32,13.95-7.73.11,0,.89-.05,1.16-.05.12,0,.59,0,.7,0,.28,0,1.05.04,1.16.05,5.82.41,11.12,3.04,13.95,7.73,1.63,2.69,2.06,6.69,2.06,10.06v58.58h28.92s0-58.58,0-58.58c0-3.37.43-7.37,2.06-10.06,2.83-4.68,8.13-7.32,13.95-7.73.11,0,.89-.05,1.16-.05.12,0,.59,0,.7,0,.28,0,1.05.04,1.16.05,5.82.41,11.12,3.04,13.95,7.73,1.63,2.69,2.06,6.69,2.06,10.06v58.58h29.04s0-59.61,0-59.61c-.03-25.75-20.9-46.62-46.65-46.65Z"/>
  <rect class="cls-1" x="429.77" y="379.93" width="30.14" height="109.54"/>
  <circle class="cls-1" cx="444.84" cy="342.36" r="16.66" transform="translate(-66.76 111.36) rotate(-13.28)"/>
</svg>
